<svg width="500" height="500" viewBox="0 0 500 500" fill="none" xmlns="http://www.w3.org/2000/svg">
<rect width="500" height="500" rx="50" fill="#4BA6FA"/>
<path d="M89.3177 208.488C119.108 171.312 149.913 159.68 149.913 159.68C149.913 159.68 151.102 146.217 154.219 139.993C157.337 133.769 161.602 129.682 165.293 127.074C168.984 124.466 173.698 122.621 180.058 121.537C187.097 120.337 194.823 121.537 199.037 122.425C205.351 123.756 214.712 127.641 214.712 127.641C214.712 127.641 225.01 119.168 232.998 117.209C239.933 115.509 246.06 115.688 251.285 117.209C255.665 118.484 257.841 120.05 261.734 122.425C266.087 125.08 272.184 130.249 272.184 130.249C272.184 130.249 276.866 128.316 280.021 127.641C286.006 126.361 289.79 126.033 295.695 127.641C302.793 129.573 306.554 132.521 311.369 138.073C315.849 143.238 319.206 153.721 319.206 153.721L347.942 156.328C347.942 156.328 353.547 149.836 358.392 145.897C363.005 142.146 364.808 140.817 371.388 137.532C376.31 135.076 386.662 133.736 392.353 135.465C398.044 137.194 401.533 138.987 405.414 142.454C409.296 145.921 414.839 153.19 418.476 161.544C421.951 169.525 424.992 178.136 426.313 185.016C429.246 200.283 429.554 200.613 431.538 229.351C433.497 257.731 428.732 264.855 426.406 268.332L426.313 268.471C424.025 271.898 420.911 276.113 415.068 279.03C409.843 281.638 403.994 282.106 397.577 281.51C389.201 280.733 376.678 276.294 376.678 276.294L365.851 287.643C365.851 287.643 367.769 291.949 368.841 294.55C370.552 298.697 373.8 306.714 371.454 315.414C368.802 325.248 364.904 331.723 355.78 336.277C349.327 339.498 337.493 338.885 337.493 338.885C337.493 338.885 334.583 351.144 329.656 357.141C321.086 367.573 306.886 367.673 300.92 367.573C293.494 367.448 282.633 364.965 282.633 364.965C282.633 364.965 271.36 377.239 261.734 380.613C251.146 384.324 240.835 383.221 232.998 380.613C221.184 376.681 212.099 364.965 212.099 364.965H172.914C128.241 364.965 98.8505 339.32 91.9301 331.061C83.3853 320.864 64.9998 294.779 68.4188 260.647C71.0311 234.567 78.8682 221.527 89.3177 208.488Z" fill="black"/>
<path d="M120.666 192.84C134.432 181.501 162.464 166.447 162.464 166.447C162.464 166.447 161.849 160.295 162.464 154.758C163.371 146.596 166.343 140.696 173.291 136.302C179.384 132.447 184.559 132.619 191.747 133.226C199.037 133.841 216.97 140.608 216.97 140.608C216.97 140.608 228.659 130.765 236.042 129.535C243.158 128.349 247.431 129.39 253.883 132.611C260.335 135.831 270.494 144.915 270.494 144.915C270.494 144.915 275.308 142.173 281.567 140.608C284.028 139.993 289.667 139.271 292.641 139.993C297.598 141.197 300.759 144.23 303.532 148.504C306.791 153.528 309.252 164.601 309.252 164.601L352.932 168.908C352.932 168.908 356.623 163.371 361.004 158.936C366.171 153.707 369.548 150.888 376.31 147.991C380.616 146.145 385.998 145.128 391.69 147.376C398.457 150.048 402.145 154.143 405.415 160.295C411.626 171.984 416.913 189.21 419.374 211.357C420.807 224.256 422.45 245.194 419.374 256.882C417.917 262.419 414.017 267.254 410.146 269.187C405.216 271.647 398.28 270.512 392.305 269.187C385.624 267.705 376.31 262.419 376.31 262.419L351.701 287.028C351.701 287.028 360.374 296.795 361.004 304.982C361.403 310.16 360.973 313.513 358.392 318.022C354.742 324.398 349.958 327.154 342.718 328.453C336.61 329.55 327.708 327.016 327.708 327.016C327.708 327.016 325.247 340.655 323.402 344.242L323.394 344.256C321.55 347.841 319.315 352.186 311.713 354.533C305.865 356.339 299.081 355.751 293.083 354.533C287.699 353.44 280.337 350.394 280.337 350.394C280.337 350.394 273.57 358.084 271.109 360.853C267.828 364.544 261.596 369.379 254.498 371.311C248.593 372.919 243.633 373.418 237.888 371.311C233.613 369.744 231.12 368.227 226.199 363.313C221.277 358.4 217.586 354.085 217.586 354.085C217.586 354.085 204.203 354.533 201.59 354.533C198.978 354.533 176.684 355.383 167.689 354.533C151.922 353.043 142.616 351.276 128.503 344.101C103.535 331.407 99.815 323.238 94.5425 315.414C90.2857 309.097 84.093 297.158 81.4806 281.51C79.8034 271.464 80.0378 262.905 81.4806 252.823C83.3056 240.069 85.6857 235.409 91.9301 224.135C99.9664 209.626 107.856 203.391 120.666 192.84Z" fill="#FFCE67"/>
<ellipse cx="123.374" cy="247.18" rx="8.61292" ry="8.6129" fill="black"/>
<path d="M178.742 187.505C176.231 187.863 175.444 190.056 175.051 192.426C174.576 195.29 176.182 198.578 178.127 198.578C181.203 198.578 183.664 198.451 187.355 199.194C192.412 200.211 195.263 201.837 199.044 205.346C201.033 207.191 203.592 209.981 205.196 214.574C206.789 219.133 207.718 223.327 207.042 228.108C206.393 232.703 203.351 236.106 203.351 239.182C203.351 244.104 209.965 245.26 213.194 250.256C216.173 254.866 217.648 257.794 218.731 263.175C219.774 268.357 219.797 271.533 218.731 276.71C217.559 282.396 212.579 286.553 212.579 289.014C212.579 291.475 215.04 292.705 218.116 296.396C220.252 298.961 221.548 300.558 222.422 303.779C223.303 307.025 223.183 308.733 222.422 311.777C221.807 314.237 218.706 316.628 218.116 319.159C217.829 320.39 217.979 321.961 218.731 323.466C219.346 324.696 221.807 325.926 223.653 325.926C225.498 325.926 226.597 326.025 229.189 324.081C231.781 322.137 233.093 318.859 234.111 314.237C234.862 310.828 235.342 303.779 233.496 298.242C231.957 293.627 226.729 289.629 226.729 287.784C226.729 286.553 228.971 284.708 230.42 279.171C232.002 273.128 232.265 269.327 231.035 262.56C230.265 258.323 229.189 253.947 226.113 247.795C222.174 239.917 216.885 237.337 216.885 236.106C216.885 234.876 217.5 234.26 218.731 230.569C219.961 226.878 220.049 224.417 219.346 219.496C218.731 215.189 217.872 211.498 215.655 207.191C213.437 202.885 209.982 197.873 204.581 194.272C199.044 190.581 197.199 189.966 191.047 188.12C188.996 187.505 183.049 186.89 178.742 187.505Z" fill="black"/>
<path d="M248.876 201.039C247.646 200.424 246.415 198.578 246.415 196.118C246.415 194.181 246.828 193.114 248.261 191.811C249.694 190.508 253.287 189.966 256.259 189.966C259.95 189.966 263.641 190.317 267.332 192.426C271.767 194.961 273.633 196.854 276.561 201.039C278.965 204.478 279.314 206.178 280.252 210.267C281.379 215.185 280.921 218.186 280.252 223.187C279.927 225.615 279.605 226.973 279.021 228.724C278.406 230.569 280.927 228.108 288.249 237.337C292.132 242.23 293.867 245.962 295.017 252.101C296.034 257.533 296.247 259.484 295.632 265.021C295.053 270.236 294.151 273.797 291.941 278.555C289.328 284.178 287.019 289.014 283.328 291.475C280.571 293.312 276.355 294.551 273.484 290.244C272.433 288.667 271.639 285.938 272.869 284.092C273.632 282.948 276.561 279.171 278.406 276.71C281.005 273.245 281.482 272.403 282.713 268.097C283.328 265.944 283.328 258.254 282.713 253.947C281.92 248.4 276.561 242.258 272.254 239.182C265.299 234.214 264.256 234.876 264.872 233.645C265.71 231.968 267.899 226.236 268.563 221.956C269.115 218.395 269.517 216.203 268.563 212.728C267.071 207.3 264.596 204.272 259.335 202.27C256.102 201.039 252.529 202.866 248.876 201.039Z" fill="black"/>
<path d="M301.169 202.885C300.534 204.699 300.4 206.66 301.169 208.422C302.208 210.804 303.497 211.33 306.091 211.498C308.684 211.666 311.896 209.431 314.703 210.883C317.012 212.076 318.286 213.923 319.01 216.419C319.367 217.65 319.341 220.978 318.395 223.187C316.549 227.493 315.319 228.108 315.319 230.569C315.319 233.03 318.395 235.491 320.856 237.952C323.638 240.735 323.794 240.955 324.547 243.489C325.3 246.022 324.547 249.641 323.316 251.486C321.147 254.741 319.01 256.408 316.549 257.638C314.235 258.796 313.546 262.091 314.703 264.406C315.934 266.866 318.395 268.097 319.625 268.097C322.268 268.097 324.029 267.433 326.392 266.251C327.737 265.579 329.656 264.316 331.929 261.33C334.74 257.638 336.382 252.924 336.851 249.641C337.32 246.357 336.964 238.401 333.16 233.645C330.699 230.569 328.853 229.339 328.853 228.108C328.853 226.878 330.511 226.878 331.314 221.956C331.716 219.496 331.662 216.419 331.314 214.574C330.637 210.978 329.35 207.542 327.008 204.731C323.932 201.039 321.471 199.194 317.779 198.578C314.088 197.963 312.858 197.963 309.782 198.578C306.186 199.298 302.031 200.424 301.169 202.885Z" fill="black"/>
</svg>
